<?xml version="1.0" encoding="iso-8859-1"?>
<!-- Generator: Adobe Illustrator 16.0.0, SVG Export Plug-In . SVG Version: 6.00 Build 0)  -->
<!DOCTYPE svg PUBLIC "-//W3C//DTD SVG 1.1//EN" "http://www.w3.org/Graphics/SVG/1.1/DTD/svg11.dtd">
<svg version="1.1" id="Capa_1" xmlns="http://www.w3.org/2000/svg" xmlns:xlink="http://www.w3.org/1999/xlink" x="0px" y="0px"
	 width="973.8px" height="973.8px" viewBox="0 0 973.8 973.8" style="enable-background:new 0 0 973.8 973.8;" xml:space="preserve"
	>
<g>
	<g>
		<path d="M124.2,807.8l120.2-120.201c-48-48-74.4-111.799-74.4-179.699c0-67.9,26.4-131.7,74.4-179.7s111.8-74.4,179.7-74.4
			c67.9,0,131.7,26.4,179.7,74.4c62,62,87,150.6,68.5,234.399l-150-60.699l100.9,388l350.6-205.199L831.1,627
			c19-65.1,22.2-133.699,9-200.9C823.899,343.3,783.7,268,723.8,208.2c-40.5-40.5-87.7-71.8-140.3-93.1
			C532.8,94.3,479.1,83.9,424,83.9c-55,0-108.7,10.4-159.5,31.1c-52.7,21.4-99.9,52.7-140.3,93.1c-40.5,40.5-71.8,87.7-93.1,140.3
			C10.5,399.2,0,452.9,0,507.9c0,55,10.4,108.699,31.1,159.5C52.4,720.201,83.7,767.4,124.2,807.8z"/>
	</g>
</g>
<g>
</g>
<g>
</g>
<g>
</g>
<g>
</g>
<g>
</g>
<g>
</g>
<g>
</g>
<g>
</g>
<g>
</g>
<g>
</g>
<g>
</g>
<g>
</g>
<g>
</g>
<g>
</g>
<g>
</g>
</svg>
