<svg id="Capa_1" enable-background="new 0 0 512 512" height="512" viewBox="0 0 512 512" width="512" xmlns="http://www.w3.org/2000/svg"><g id="R"><path d="m349.899 313.5v-.3c-7.5-7.8-15.599-15.601-25.199-23.101 65.4-20.7 101.999-70.499 101.999-140.4 0-62.999-33.3-116.1-84.6-135.901-24.598-9.299-61.8-13.798-114-13.798h-192.599v512h124.2v-202.101c36.711 0 34.854 5.895 47.999 20.101 15.312 16.735 67.089 98.459 120.901 182h147.9c-60.864-101.473-104.654-174.391-126.601-198.5zm-190.199-202.201c26.206-.084 92.305-.437 104.099 1.201 23.701 4.2 35.7 18.6 35.7 43.2 0 21.599-9 36.299-26.1 42.299-19.349 6.912-86.441 4.801-113.699 4.801z"/></g></svg>